<mxfile host="app.diagrams.net" modified="2023-09-06T15:24:26.709Z" agent="Mozilla/5.0 (X11; Linux x86_64; rv:109.0) Gecko/20100101 Firefox/115.0" version="21.7.1" etag="MDX9fH-IwdCdnQ4kexB-" type="gitlab">
  <diagram name="Page-1" id="zJhxCGBS8uIceYkO7BP5">
    <mxGraphModel>
      <root>
        <mxCell id="0" />
        <mxCell id="1" parent="0" />
      </root>
    </mxGraphModel>
  </diagram>
</mxfile>
